<?xml version="1.0" encoding="UTF-8" standalone="no"?>
<svg width="387px" height="120px" viewBox="0 0 387 120" version="1.1" xmlns="http://www.w3.org/2000/svg" xmlns:xlink="http://www.w3.org/1999/xlink">
    <!-- Generator: Sketch 41.2 (35397) - http://www.bohemiancoding.com/sketch -->
    <title>decent</title>
    <desc>Created with Sketch.</desc>
    <defs></defs>
    <g id="Page-1" stroke="none" stroke-width="1" fill="none" fill-rule="evenodd">
        <g id="Artboard" transform="translate(-206.000000, -240.000000)" fill="#000000">
            <g id="decent" transform="translate(206.000000, 240.000000)">
                <path d="M149.985863,114.229196 C145.464615,111.182189 142.08615,107.226484 139.850368,102.361963 C137.614585,97.497442 136.496711,92.3924444 136.496711,87.0468171 C136.496711,80.3113267 138.235627,74.4044971 141.71351,69.3261511 C145.191394,64.2478051 149.63805,60.3455557 155.053611,57.6192858 C160.469173,54.8930158 166.008861,53.5299013 171.672843,53.5299013 C177.03872,53.5299013 181.485376,54.6791939 185.012944,56.9778137 C188.540511,59.2764334 190.304269,62.0828457 190.304269,65.3971346 C190.304269,67.428473 189.583861,69.1925036 188.143023,70.6892792 C186.702186,72.1860549 184.690012,72.9344315 182.106441,72.9344315 C179.721607,72.9344315 177.833641,72.2662381 176.442488,70.9298313 C175.051335,69.5934244 173.908618,67.5353888 173.014306,64.7556626 C172.119993,61.7621113 171.250535,59.7040756 170.405906,58.5814939 C169.561277,57.4589121 168.045936,56.8976297 165.859838,56.8976297 C161.58701,56.8976297 158.183703,59.1694872 155.649817,63.7132704 C153.11593,68.2570537 151.849006,74.2707942 151.849006,81.7546725 C151.849006,90.6284139 153.687288,97.7112639 157.363908,103.003435 C161.040528,108.295606 166.903158,110.941652 174.951974,110.941652 C177.634913,110.941652 179.945186,110.620919 181.882864,109.979444 C183.820542,109.337968 186.279866,108.268859 189.260909,106.772083 C189.708065,106.772083 189.981323,106.93245 190.229743,107.253187 C190.478163,107.573925 190.503005,107.841202 190.304269,108.055028 C186.627649,111.690054 182.951084,114.389555 179.274465,116.153612 C175.597845,117.917669 171.374764,118.799685 166.605095,118.799685 C160.0468,118.799685 154.507112,117.276204 149.985863,114.229196 Z" id="Path-Copy"></path>
                <g id="Group" transform="translate(259.245552, 54.292722)">
                    <path d="M26.9140739,16.4137379 L26.9140739,50.5721258 C26.9140739,54.8486277 27.4854319,57.7619509 28.6281651,59.3121828 C29.7708982,60.8624148 31.8824387,61.6375191 34.9628498,61.6375191 C35.2609541,61.6375191 35.410004,61.9582519 35.410004,62.5997272 C35.410004,63.2412025 35.2609541,63.5619353 34.9628498,63.5619353 C32.3792792,63.5619353 30.3422637,63.5084798 28.8517422,63.4015673 L19.9086578,63.2411993 L11.1146248,63.4015673 C9.6241033,63.5084798 7.58708778,63.5619353 5.00351716,63.5619353 C4.70541285,63.5619353 4.55636294,63.2412025 4.55636294,62.5997272 C4.55636294,61.9582519 4.70541285,61.6375191 5.00351716,61.6375191 C8.08392829,61.6375191 10.1706271,60.8624148 11.2636762,59.3121828 C12.3567253,57.7619509 12.9032417,54.8486277 12.9032417,50.5721258 L12.9032417,20.4229384 C12.9032417,17.1086494 12.5306169,14.6764255 11.7853561,13.1261936 C11.0400954,11.5759616 9.87253771,10.8008573 8.28264809,10.8008573 C6.59339038,10.8008573 4.20859172,11.5492339 1.12818059,13.0460095 L0.830077778,13.0460095 C0.531973475,13.0460095 0.308398601,12.7787322 0.159346449,12.2441695 C0.0102942978,11.7096067 0.0351359504,11.3888739 0.233872153,11.2819613 L20.9520176,0.376936101 C21.5482262,0.163111008 21.8960094,0.0562000646 21.9953775,0.0562000646 C23.0884266,0.0562000646 24.131776,1.2054927 25.125457,3.50411246 C26.119138,5.80273221 26.7153377,8.9298773 26.9140739,12.8856415 C26.9140739,14.5494597 26.9140739,16.4137379 26.9140739,16.4137379 Z" id="Path"></path>
                    <path d="M76.4430571,62.9204632 C76.4430571,63.5619385 76.2940072,63.8826714 75.9959029,63.8826714 C73.4123323,63.8826714 71.3753167,63.8292159 69.8847952,63.7223033 L60.9417108,63.5619353 L52.2967293,63.7223033 C50.7068397,63.8292159 48.6201408,63.8826714 46.0365702,63.8826714 C45.7384659,63.8826714 45.589416,63.5619385 45.589416,62.9204632 C45.589416,62.278988 45.7384659,61.9582551 46.0365702,61.9582551 C49.1169813,61.9582551 51.2036802,61.1831508 52.2967293,59.6329189 C53.3897784,58.0826869 53.9362947,55.1693637 53.9362947,50.8928619 L53.9362947,27.7998672 C53.9362947,22.0265897 52.9674703,17.750152 51.0297923,14.9704258 C49.0921143,12.1906996 46.0365911,10.8008573 41.8631308,10.8008573 C39.4782964,10.8008573 37.0189728,11.335412 34.4850862,12.4045375 C35.5973131,10.605788 43.979057,0.0562000646 50.5081124,0.0562000646 C55.8739899,0.0562000646 60.1219125,1.90041383 63.2520076,5.5888967 C66.3821028,9.27737956 67.9471269,14.1150997 67.9471269,20.1022024 L67.9471269,50.8928619 C67.9471269,55.1693637 68.5184849,58.0826869 69.6612181,59.6329189 C70.8039513,61.1831508 72.9154917,61.9582551 75.9959029,61.9582551 C76.2940072,61.9582551 76.4430571,62.278988 76.4430571,62.9204632 Z" id="Path"></path>
                </g>
                <g id="Group-2" transform="translate(340.907349, 43.033842)">
                    <path d="M44.895955,62.8839528 C45.2934274,62.8839528 45.6163689,63.0977746 45.8647891,63.5254248 C46.1132094,63.953075 46.0883677,64.2738078 45.7902634,64.4876329 C42.1136437,68.4433972 38.5364457,71.3567204 35.0585622,73.2276899 C31.5806786,75.0986595 27.904114,76.0341303 24.0287581,76.0341303 C19.6565616,76.0341303 15.9303137,74.9115654 12.8499026,72.6664019 C9.76949148,70.4212384 8.22930901,66.6258999 8.22930901,61.2802726 L8.22930901,25.6785725 C8.22930901,22.3642836 7.68279266,20.0656983 6.58974354,18.7827477 C5.49669443,17.4997972 3.50936222,16.8583315 0.62768729,16.8583315 C0.528319189,16.8583315 0.404110926,16.6979651 0.255058775,16.3772274 C0.106006623,16.0564898 0.0314816651,15.735757 0.0314816651,15.4150193 C0.0314816651,14.9873691 0.0811649704,14.6399086 0.180533071,14.3726272 C0.279901173,14.1053458 0.428951088,13.9717072 0.62768729,13.9717072 C5.69546044,13.7578821 9.79433313,12.5818617 12.9244283,10.4436108 C16.0545235,8.30535983 18.4641638,5.04457606 20.1534215,0.661161646 C20.3521577,0.233511459 20.7744658,0.0196895731 21.4203585,0.0196895731 C22.0662511,0.0196895731 22.3891926,0.233511459 22.3891926,0.661161646 L22.3891926,13.4906031 L22.3891926,17.9809076 L22.3891926,55.988128 C22.3891926,60.0508047 23.3580171,63.0443111 25.295695,64.968737 C27.233373,66.8931628 29.7920632,67.8553613 32.9718425,67.8553613 C36.9465665,67.8553613 40.8218643,66.2516972 44.5978522,63.0443208 L44.895955,62.8839528 Z" id="Path"></path>
                    <path d="M27.568729,18.5371842 C27.568729,17.7763908 32.2653812,13.608433 33.3056555,13.5674461 C38.2697256,13.3718616 40.1899673,12.364686 42.3558706,12.364686 C42.5546068,12.364686 42.7781817,12.765602 43.0266019,13.5674461 C43.2750222,14.3692902 43.3992304,15.2513055 43.3992304,16.2135184 C43.3992304,17.2826439 43.2253389,18.3250256 42.8775505,19.3406948 C42.5297622,20.356364 42.1571374,20.8107355 41.759665,20.7038229 C35.3007384,19.2070473 33.6301832,18.4052152 27.568729,18.2983027 L27.568729,18.5371842 Z" id="Path"></path>
                </g>
                <g id="Group-3-Copy">
                    <path d="M69.2212217,105.842892 C69.519326,105.842892 69.7925841,106.110169 70.0410044,106.644732 C70.2894246,107.179295 70.3142663,107.500028 70.1155301,107.60694 L49.546436,118.351598 L48.801179,118.511966 C47.9068661,118.511966 47.0870915,117.496312 46.3418308,115.464973 C45.59657,113.433635 45.1245786,110.65395 44.9258424,107.125836 L44.776791,54.2043902 L44.776791,21.8100505 C44.776791,18.0681114 44.4538495,15.3953378 43.8079569,13.7916496 C43.1620642,12.1879614 42.0441899,11.3861293 40.4543002,11.3861293 C39.1625149,11.3861293 37.3242326,11.9741395 34.9393982,13.1501775 L34.7903468,13.1501775 C34.3928744,13.1501775 34.0699329,12.8561724 33.8215127,12.2681534 C33.5730924,11.6801344 33.5482507,11.3326738 33.746987,11.2257613 L55.6575437,0.160368018 L56.2537493,0 C56.7505898,0 57.2971062,0.240549622 57.8933148,0.721656082 C58.4895234,1.20276254 58.7876232,1.65713405 58.7876232,2.08478424 L58.7876232,97.6641232 C58.7876232,101.29915 59.1105647,103.865012 59.7564574,105.361788 C60.40235,106.858564 61.4705411,107.60694 62.9610626,107.60694 C64.2528479,107.60694 66.2898634,107.01893 69.0721703,105.842892 L69.2212217,105.842892 Z" id="Combined-Shape"></path>
                    <path d="M40.7506938,108.899987 C38.7461067,114.30264 30.6998774,118.551919 23.4010708,118.551919 C19.0288743,118.551919 15.0790516,117.322443 11.551484,114.863454 C8.0239164,112.404466 5.21680966,108.796222 3.13007953,104.038613 C1.04334941,99.2810049 1.42108547e-14,93.6949082 1.42108547e-14,87.2801554 C1.42108547e-14,79.1548018 1.76375734,72.4995956 5.29132493,67.3143371 C8.81889251,62.1290786 13.1910234,58.3604678 18.4078487,56.0083918 C23.624674,53.6563158 28.8662627,52.4802954 34.1327721,52.4802954 C37.8093918,52.4802954 41.6846896,53.121761 45.7587817,54.4047116 C45.7587817,54.4047116 45.4908246,57.7664319 45.0819645,62.8101648 C43.6579058,61.0788818 42.1083592,59.7526808 40.4332992,58.8315371 C38.1975169,57.6020428 35.5891434,56.9873049 32.6081004,56.9873049 C27.2422229,56.9873049 23.1433502,58.9918851 20.3113594,63.0011056 C17.4793685,67.0103261 16.0633943,73.5051659 16.0633943,82.4858198 C16.0633943,91.4664737 17.5538934,98.4958682 20.5349365,103.574214 C23.5159795,108.65256 27.4409606,111.191695 32.3099976,111.191695 C35.2081019,111.191695 38.021658,110.427797 40.7506938,108.899987 Z" id="Combined-Shape"></path>
                </g>
                <path d="M97.6990769,77.0691784 L126.05403,76.943632 C127.14708,76.943632 127.693596,75.2865123 127.693596,71.9722234 C127.693596,65.6643831 126.004364,61.0137571 122.625848,58.0202058 C119.247333,55.0266545 114.477735,53.5299013 108.316913,53.5299013 C101.857987,53.5299013 96.0698814,55.0533822 90.9524242,58.1003898 C85.834967,61.1473974 81.835461,65.2901964 78.953786,70.5289112 C76.0721111,75.767626 74.6312952,81.4873615 74.6312952,87.6882892 C74.6312952,93.2477416 75.8236946,98.4061946 78.208529,103.163803 C80.5933634,107.921411 84.0711948,111.71675 88.6421274,114.549932 C93.2130601,117.383115 98.6285404,118.799685 104.888731,118.799685 C109.360295,118.799685 113.48401,117.944397 117.259997,116.233796 C121.035985,114.523196 124.762233,111.743511 128.438853,107.894659 C128.637589,107.680834 128.612747,107.360102 128.364327,106.932451 C128.115907,106.504801 127.892332,106.290979 127.693596,106.290979 L127.395493,106.451347 C124.315082,108.161948 121.830917,109.337968 119.942923,109.979444 C118.054929,110.620919 115.769497,110.941652 113.086558,110.941652 C105.534582,110.941652 99.7464773,108.268878 95.7220692,102.923251 C91.6976611,97.5776236 89.6854873,90.2007685 89.6854873,80.7924644 C89.6854873,79.1289649 89.7324722,77.9204596 89.8264434,77.1669146 C89.8274749,76.9146171 89.8358946,76.6455376 89.8521515,76.3588298 C90.3431469,67.699581 92.2690341,64.3547578 94.4551323,61.3077502 C96.6412305,58.2607426 99.3738123,56.7372617 102.65296,56.7372617 C105.832739,56.7372617 108.118171,58.1805594 109.509324,61.0671981 C110.900478,63.9538369 111.645727,68.1233637 111.745095,73.5759036 C111.745095,73.5759036 109.491966,73.5759036 101.145045,73.9972165 C99.1878134,74.2866011 98.150728,76.2644664 97.6990769,77.0691784 Z" id="Combined-Shape"></path>
                <path d="M221.464629,77.0691784 L249.819583,76.943632 C250.912632,76.943632 251.459148,75.2865123 251.459148,71.9722234 C251.459148,65.6643831 249.769916,61.0137571 246.3914,58.0202058 C243.012885,55.0266545 238.243288,53.5299013 232.082465,53.5299013 C225.623539,53.5299013 219.835434,55.0533822 214.717976,58.1003898 C209.600519,61.1473974 205.601013,65.2901964 202.719338,70.5289112 C199.837663,75.767626 198.396847,81.4873615 198.396847,87.6882892 C198.396847,93.2477416 199.589247,98.4061946 201.974081,103.163803 C204.358916,107.921411 207.836747,111.71675 212.40768,114.549932 C216.978612,117.383115 222.394093,118.799685 228.654283,118.799685 C233.125848,118.799685 237.249562,117.944397 241.02555,116.233796 C244.801538,114.523196 248.527785,111.743511 252.204405,107.894659 C252.403141,107.680834 252.3783,107.360102 252.129879,106.932451 C251.881459,106.504801 251.657884,106.290979 251.459148,106.290979 L251.161045,106.451347 C248.080634,108.161948 245.596469,109.337968 243.708475,109.979444 C241.820481,110.620919 239.535049,110.941652 236.85211,110.941652 C229.300135,110.941652 223.51203,108.268878 219.487621,102.923251 C215.463213,97.5776236 213.45104,90.2007685 213.45104,80.7924644 C213.45104,79.1289649 213.498024,77.9204596 213.591996,77.1669146 C213.593027,76.9146171 213.601447,76.6455376 213.617704,76.3588298 C214.108699,67.699581 216.034586,64.3547578 218.220685,61.3077502 C220.406783,58.2607426 223.139365,56.7372617 226.418512,56.7372617 C229.598291,56.7372617 231.883723,58.1805594 233.274877,61.0671981 C234.66603,63.9538369 235.41128,68.1233637 235.510648,73.5759036 C235.510648,73.5759036 233.257518,73.5759036 224.910597,73.9972165 C222.953366,74.2866011 221.91628,76.2644664 221.464629,77.0691784 Z" id="Combined-Shape"></path>
            </g>
        </g>
    </g>
</svg>